<svg width="278" height="278" viewBox="0 0 278 278" fill="none" xmlns="http://www.w3.org/2000/svg">
<path d="M160.5 28.3745C160.5 34.0638 164.522 38.8984 169.957 40.5784C175.832 42.3942 181.482 44.7215 186.855 47.5082C191.871 50.1097 198.08 49.5127 202.076 45.5174L213.6 33.9944C218.286 29.3084 225.884 29.3086 230.57 33.9947L244.005 47.4298C248.691 52.116 248.691 59.714 244.005 64.4003L232.638 75.7673C228.62 79.7853 228.041 86.0378 230.689 91.0653C233.539 96.4776 235.922 102.175 237.784 108.103C239.482 113.509 244.304 117.5 249.97 117.5H266C272.627 117.5 278 122.873 278 129.5V148.5C278 155.127 272.627 160.5 266 160.5H249.97C244.304 160.5 239.482 164.491 237.784 169.897C235.922 175.825 233.539 181.522 230.689 186.934C228.041 191.961 228.62 198.214 232.638 202.232L244.006 213.6C248.692 218.286 248.692 225.884 244.006 230.57L230.571 244.005C225.885 248.691 218.287 248.691 213.601 244.005L202.077 232.481C198.081 228.486 191.872 227.889 186.856 230.49C181.482 233.277 175.832 235.605 169.957 237.421C164.522 239.101 160.5 243.935 160.5 249.624V266C160.5 272.627 155.127 278 148.5 278H129.5C122.873 278 117.5 272.627 117.5 266V249.314C117.5 243.67 113.54 238.861 108.162 237.145C102.392 235.304 96.8435 232.969 91.5653 230.188C86.5379 227.54 80.2852 228.119 76.2673 232.137L64.4002 244.005C59.714 248.691 52.116 248.691 47.4296 244.005L33.9942 230.57C29.3078 225.884 29.3077 218.286 33.9939 213.6L46.0171 201.576C50.0126 197.58 50.6096 191.371 48.0083 186.355C45.2913 181.116 43.0112 175.613 41.2161 169.897C39.5184 164.49 34.6964 160.499 29.0296 160.499H12C5.37258 160.499 0 155.126 0 148.499V129.5C0 122.873 5.37258 117.5 12 117.5H29.0297C34.6965 117.5 39.5184 113.509 41.2161 108.103C43.0114 102.385 45.2917 96.8829 48.0089 91.6435C50.6104 86.6273 50.0133 80.4176 46.0177 76.422L33.995 64.3993C29.3088 59.713 29.3088 52.1151 33.995 47.4288L47.4298 33.9941C52.116 29.3078 59.714 29.3078 64.4003 33.9941L76.2674 45.8611C80.2853 49.879 86.5378 50.4584 91.5651 47.8103C96.8434 45.0299 102.392 42.6945 108.162 40.8537C113.54 39.1382 117.5 34.329 117.5 28.6847V12C117.5 5.37258 122.873 0 129.5 0H148.5C155.127 0 160.5 5.37258 160.5 12V28.3745ZM139.5 97.7998C116.746 97.7998 98.2998 116.246 98.2998 139C98.2998 161.754 116.746 180.2 139.5 180.2C162.254 180.2 180.7 161.754 180.7 139C180.7 116.246 162.254 97.7998 139.5 97.7998Z" fill="white"/>
</svg>
