<svg width="111" height="105" viewBox="0 0 111 105" fill="none" xmlns="http://www.w3.org/2000/svg">
<path fill-rule="evenodd" clip-rule="evenodd" d="M1.7367 58.7698C0.69649 59.5066 0.235522 60.8204 0.587277 62.0456L3.51065 72.2285C3.8226 73.3152 4.71894 74.1342 5.82924 74.3471L12.1848 75.5657C14.4002 75.9905 15.3719 78.6165 13.9665 80.381L8.45185 87.3049C7.85383 88.0558 7.65121 89.0474 7.90678 89.9727L11.4496 102.799C11.8088 104.099 12.9921 105 14.3413 105H99.2118C100.59 105 101.791 104.061 102.123 102.723L110.651 68.4038C110.872 67.5168 110.676 66.5777 110.119 65.8529L98.0709 50.1682C97.7352 49.7312 97.5264 49.2102 97.4673 48.6623L94.1644 18.025C94.0612 17.0673 93.5043 16.2174 92.6675 15.7403L66.627 0.894675C65.6615 0.344266 64.4708 0.372677 63.5327 0.968506L29.8068 22.389C28.7541 23.0577 28.2248 24.3079 28.4775 25.5292L30.66 36.0784C30.9016 37.2457 30.4291 38.4452 29.4564 39.1343L1.7367 58.7698ZM34.1915 74.5709C30.9254 74.9857 30.6152 79.5974 33.7965 80.4457L70.3153 90.1841C73.7361 91.0963 75.6374 86.3689 72.5376 84.6587L51.3566 72.9726C50.8 72.6655 50.1601 72.5432 49.5295 72.6232L34.1915 74.5709ZM67.61 52.6476C68.489 52.8705 69.4217 52.6837 70.1472 52.1396L78.6472 45.7646C81.0573 43.9571 79.5977 40.1226 76.5958 40.3751L51.3318 42.5001C47.9585 42.7839 47.5646 47.5657 50.846 48.3976L67.61 52.6476Z" fill="#D9D9D9"/>
</svg>
