<svg width="109" height="105" viewBox="0 0 109 105" fill="none" xmlns="http://www.w3.org/2000/svg">
<path fill-rule="evenodd" clip-rule="evenodd" d="M0.844327 59.0722C0.15085 59.5634 -0.156462 60.4393 0.0780411 61.2561L3.36669 72.7114C3.57466 73.4358 4.17222 73.9818 4.91242 74.1237L14.9474 76.0478C15.724 76.1967 16.0287 77.1454 15.4841 77.7187L7.99522 85.6017C7.52704 86.0946 7.34122 86.7914 7.50188 87.4519L11.3726 103.365C11.5907 104.261 12.3935 104.892 13.316 104.892H99.6208C100.567 104.892 101.383 104.229 101.578 103.304L103.952 92.0078C104.097 91.3164 103.867 90.5996 103.346 90.1221L93.4697 81.0686C92.9008 80.5471 93.112 79.6051 93.849 79.3764L105.478 75.7673C106.216 75.5383 106.756 74.9048 106.865 74.14L108.549 62.353C108.636 61.7464 108.44 61.1335 108.017 60.69L97.9124 50.0932C97.4903 49.6505 97.294 49.0391 97.3795 48.4334L102.975 8.79578C103.126 7.73256 102.409 6.74054 101.353 6.54846L65.5138 0.0322761C65.019 -0.0576996 64.5084 0.0420881 64.0838 0.311754L28.9103 22.6517C28.2084 23.0974 27.8556 23.9309 28.024 24.7452L30.4791 36.6113C30.6401 37.3895 30.3251 38.1892 29.6766 38.6485L0.844327 59.0722ZM26.9027 62.801C26.1605 62.6181 25.4958 63.3019 25.6997 64.0387L31.6624 85.5867C31.8677 86.3286 32.7991 86.5701 33.339 86.0214L49.2395 69.8603C49.7832 69.3077 49.5186 68.3735 48.7659 68.188L26.9027 62.801ZM82.888 36.8623C83.4399 37.485 84.4666 37.2005 84.6193 36.3825L88.0456 18.0299C88.1589 17.4228 87.7003 16.8592 87.0829 16.8466L67.0281 16.4388C66.1565 16.4211 65.6811 17.4495 66.2594 18.1019L82.888 36.8623Z" fill="#D9D9D9"/>
</svg>
