<svg width="646" height="333" viewBox="0 0 646 333" fill="none" xmlns="http://www.w3.org/2000/svg">
<path d="M99.9728 62.2606H326.326C323.066 69.8687 315.581 84.7554 308.739 91.0955C332.913 73.3202 376.919 36.0872 381.972 12.2635C384.172 15.0935 391.214 20.7535 401.778 20.7535C412.341 20.7535 425.042 15.0935 430.072 12.2635C430.072 30.5014 426.865 72.2601 414.038 93.3909C435.919 82.0708 446.419 67.9207 448.934 62.2606H592.292C600.954 65.9085 613.802 76.4331 624.766 96.221C626.241 98.8816 524.386 104.711 524.386 104.711C524.386 104.711 631.269 109.629 632.313 112.258C639.89 131.338 645.419 156.428 646 188.669C646.034 190.531 479.115 197.159 479.115 197.159C479.115 197.159 645.981 201.964 645.846 205.649C644.879 232.062 640.562 253.92 634.598 271.683C633.724 274.286 551.737 278.286 551.737 278.286C551.737 278.286 630.031 283.844 629.072 286.032C617.333 312.797 602.118 327.655 592.292 333H99.9728C105.661 328.158 113.539 318.46 121.077 303.756C122.444 301.091 202.775 295.266 202.775 295.266C202.775 295.266 126.995 290.947 127.904 288.663C135.314 270.033 141.497 245.878 143.563 216.026C143.756 213.245 284.828 208.479 284.828 208.479C284.828 208.479 144.189 203.161 144.234 200.932C144.278 198.758 144.3 196.557 144.3 194.329C144.3 166.437 140.775 143.295 135.55 124.521C134.827 121.922 240.501 116.031 240.501 116.031C240.501 116.031 131.113 110.535 129.962 107.541C120.33 82.4877 107.981 67.8848 99.9728 62.2606Z" fill="white"/>
<path d="M90.5414 196.215C90.5414 237.895 77.8737 271.683 62.2472 271.683C46.6208 271.683 33.953 237.895 33.953 196.215C33.953 154.536 46.6208 120.748 62.2472 120.748C77.8737 120.748 90.5414 154.536 90.5414 196.215Z" fill="white"/>
<path fill-rule="evenodd" clip-rule="evenodd" d="M62.2472 62.2606C96.6254 62.2606 124.494 122.234 124.494 196.215C124.494 270.196 96.6254 330.17 62.2472 330.17C27.869 330.17 0 270.196 0 196.215C0 122.234 27.869 62.2606 62.2472 62.2606ZM62.2472 107.541C40.3702 107.541 22.6354 147.242 22.6354 196.215C22.6354 245.189 40.3702 284.89 62.2472 284.89C84.1242 284.89 101.859 245.189 101.859 196.215C101.859 147.242 84.1242 107.541 62.2472 107.541Z" fill="white"/>
<path d="M428.185 6.6034C428.185 10.2504 418.473 13.2068 406.493 13.2068C394.513 13.2068 384.801 10.2504 384.801 6.6034C384.801 2.95644 394.513 0 406.493 0C418.473 0 428.185 2.95644 428.185 6.6034Z" fill="white"/>
</svg>
